<svg width="20" height="20" viewBox="0 0 20 20" fill="none" xmlns="http://www.w3.org/2000/svg">
<path d="M6.00391 13.168H17.0234C18.2734 13.168 19.293 12.1484 19.293 10.8984V6.26171C19.293 6.25781 19.293 6.24999 19.293 6.24609C19.293 6.23437 19.293 6.22656 19.293 6.21484C19.293 6.20703 19.293 6.19921 19.2891 6.1914C19.2891 6.18359 19.2852 6.17187 19.2852 6.16406C19.2852 6.15624 19.2813 6.14843 19.2813 6.14062C19.2773 6.13281 19.2773 6.12499 19.2734 6.11328C19.2695 6.10546 19.2695 6.09765 19.2656 6.08984C19.2617 6.08203 19.2617 6.07421 19.2578 6.0664C19.2539 6.05859 19.25 6.05078 19.2461 6.03906C19.2422 6.03125 19.2383 6.02343 19.2344 6.01953C19.2305 6.01171 19.2266 6.0039 19.2227 5.99609C19.2188 5.98828 19.2148 5.98437 19.2109 5.97656C19.207 5.96874 19.1992 5.96093 19.1953 5.95312C19.1914 5.94531 19.1875 5.9414 19.1797 5.93359C19.1758 5.92578 19.168 5.92187 19.1641 5.91406C19.1602 5.90624 19.1523 5.90234 19.1484 5.89453C19.1445 5.88671 19.1367 5.88281 19.1328 5.8789C19.125 5.87109 19.1211 5.86718 19.1133 5.85937C19.1055 5.85546 19.1016 5.84765 19.0938 5.84375C19.0859 5.83984 19.0781 5.83203 19.0703 5.82812C19.0625 5.82421 19.0586 5.82031 19.0508 5.8164C19.043 5.81249 19.0352 5.80859 19.0273 5.80078C19.0195 5.79687 19.0117 5.79296 19.0039 5.78906C18.9961 5.78515 18.9883 5.78124 18.9805 5.77734C18.9727 5.77343 18.9648 5.76953 18.957 5.76562C18.9492 5.76171 18.9414 5.76171 18.9336 5.75781C18.9258 5.7539 18.9141 5.74999 18.9063 5.74999C18.8984 5.74999 18.8906 5.74609 18.8867 5.74609C18.875 5.74218 18.8672 5.74218 18.8555 5.74218C18.8516 5.74218 18.8477 5.73828 18.8398 5.73828L4.84766 3.78515V1.83594C4.84766 1.81641 4.84766 1.79297 4.84375 1.77734C4.84375 1.77344 4.84375 1.76953 4.83984 1.76172C4.83984 1.75 4.83594 1.73828 4.83594 1.72656C4.83203 1.71484 4.83203 1.70703 4.82813 1.69531C4.82813 1.6875 4.82422 1.68359 4.82422 1.67578C4.82031 1.66406 4.81641 1.65234 4.8125 1.64062C4.8125 1.63672 4.80859 1.62891 4.80859 1.625C4.80469 1.61328 4.80078 1.60547 4.79297 1.59375C4.78906 1.58984 4.78906 1.58203 4.78516 1.57812C4.78125 1.57031 4.77734 1.5625 4.76953 1.55469C4.76563 1.54687 4.76172 1.54297 4.75781 1.53516C4.75391 1.52734 4.75 1.52344 4.74609 1.51562C4.74219 1.50781 4.73438 1.5 4.73047 1.49219C4.72656 1.48828 4.72266 1.48437 4.71875 1.48047C4.71094 1.47266 4.70313 1.46484 4.69531 1.45703C4.69141 1.45312 4.6875 1.44922 4.68359 1.44531C4.67578 1.4375 4.66797 1.42969 4.65625 1.42187C4.65234 1.41797 4.64453 1.41406 4.64063 1.41016C4.63281 1.40234 4.625 1.39844 4.61719 1.39062C4.60547 1.38281 4.59375 1.375 4.58594 1.37109C4.58203 1.36719 4.57813 1.36719 4.57422 1.36328C4.55859 1.35547 4.53906 1.34766 4.51953 1.33984L1.47656 0.0429695C1.19141 -0.0781241 0.867188 0.0546882 0.75 0.339844C0.632813 0.625 0.761719 0.949219 1.04688 1.06641L3.73438 2.19922V4.71484V5.11718V8.17577V10.9101V14.3633C3.73438 15.5156 4.59766 16.4687 5.71094 16.6133C5.50781 16.9492 5.39063 17.3437 5.39063 17.7656C5.39063 19.0039 6.39844 20.0039 7.62891 20.0039C8.85938 20.0039 9.86719 18.9961 9.86719 17.7656C9.86719 17.3555 9.75781 16.9648 9.55859 16.6367H14.5469C14.3477 16.9687 14.2383 17.3555 14.2383 17.7656C14.2383 19.0039 15.2461 20.0039 16.4766 20.0039C17.707 20.0039 18.7148 18.9961 18.7148 17.7656C18.7148 16.5351 17.707 15.5273 16.4766 15.5273H6.00391C5.36328 15.5273 4.84375 15.0039 4.84375 14.3672V12.8633C5.18359 13.0547 5.58203 13.168 6.00391 13.168ZM8.76563 17.7539C8.76563 18.3789 8.25781 18.8828 7.63672 18.8828C7.01563 18.8828 6.50781 18.375 6.50781 17.7539C6.50781 17.1328 7.01563 16.625 7.63672 16.625C8.25781 16.625 8.76563 17.1328 8.76563 17.7539ZM17.6211 17.7539C17.6211 18.3789 17.1133 18.8828 16.4922 18.8828C15.8711 18.8828 15.3633 18.375 15.3633 17.7539C15.3633 17.1328 15.8711 16.625 16.4922 16.625C17.1133 16.625 17.6211 17.1328 17.6211 17.7539ZM17.0234 12.0586H6.00391C5.36328 12.0586 4.84375 11.5351 4.84375 10.8984V8.16406V5.10546V4.89843L18.1836 6.73437V10.8906C18.1836 11.5391 17.6602 12.0586 17.0234 12.0586Z" fill="black"/>
</svg>
